<?xml version="1.0" encoding="utf-8"?><svg xmlns="http://www.w3.org/2000/svg" xmlns:xlink="http://www.w3.org/1999/xlink"><symbol viewBox="0 0 19 10" id="arrow-down" xmlns="http://www.w3.org/2000/svg"><path d="M1.75186 0.625054C2.05366 0.624465 2.34614 0.729574 2.57853 0.922137L9.50186 6.7088L16.4381 1.12881C16.5702 1.02151 16.7223 0.941387 16.8854 0.893038C17.0486 0.844688 17.2198 0.829067 17.389 0.847072C17.5583 0.865077 17.7223 0.916351 17.8716 0.997952C18.021 1.07955 18.1528 1.18987 18.2594 1.32255C18.3667 1.45468 18.4468 1.6067 18.4951 1.76989C18.5435 1.93308 18.5591 2.10421 18.5411 2.27346C18.5231 2.4427 18.4718 2.60672 18.3902 2.75608C18.3086 2.90545 18.1983 3.03721 18.0656 3.1438L10.3156 9.38255C10.0845 9.57253 9.79458 9.67639 9.4954 9.67639C9.19622 9.67639 8.90632 9.57253 8.67519 9.38255L0.925196 2.92422C0.794403 2.81579 0.686287 2.68262 0.60704 2.53233C0.527794 2.38205 0.478973 2.21761 0.463375 2.04843C0.447777 1.87926 0.46571 1.70866 0.516142 1.54642C0.566574 1.38419 0.648516 1.23349 0.757277 1.10297C0.877472 0.9548 1.029 0.835095 1.20097 0.752461C1.37294 0.669827 1.56107 0.626316 1.75186 0.625054Z"/></symbol><symbol viewBox="0 0 64 64" id="barbell" xmlns="http://www.w3.org/2000/svg"><path d="M7.2 42.4H12V43.2C12 44.9644 13.4355 46.4 15.2 46.4H20C21.7645 46.4 23.2 44.9644 23.2 43.2V36.8H40.8V43.2C40.8 44.9644 42.2355 46.4 44 46.4H48.8C50.5645 46.4 52 44.9644 52 43.2V42.4H56.8C58.5645 42.4 60 40.9644 60 39.2V24.8C60 23.0355 58.5645 21.6 56.8 21.6H52V20.8C52 19.0355 50.5645 17.6 48.8 17.6H44C42.2355 17.6 40.8 19.0355 40.8 20.8V27.2H23.2V20.8C23.2 19.0355 21.7645 17.6 20 17.6H15.2C13.4355 17.6 12 19.0355 12 20.8V21.6H7.2C5.43555 21.6 4 23.0355 4 24.8V39.2C4 40.9644 5.43555 42.4 7.2 42.4ZM56.8 24.8V39.2H52V24.8H56.8ZM44 20.8H48.8V24.8V39.2V43.2H44V20.8ZM40.6 30.4V33.6H23.2V30.4H40.6ZM15.2 20.8H20L20.0005 27.2H20V36.8H20.0014L20.002 43.2H15.2V39.2V24.8V20.8ZM7.2 24.8H12V39.2H7.2V24.8Z"/></symbol><symbol viewBox="0 0 40 41" id="btn-next" xmlns="http://www.w3.org/2000/svg"><path fill-rule="evenodd" clip-rule="evenodd" d="M2.49997 20.5C2.49997 20.8315 2.63166 21.1495 2.86608 21.3839C3.1005 21.6183 3.41845 21.75 3.74997 21.75L33.2325 21.75L25.365 29.615C25.2487 29.7312 25.1566 29.8692 25.0937 30.021C25.0308 30.1729 24.9984 30.3356 24.9984 30.5C24.9984 30.6644 25.0308 30.8271 25.0937 30.979C25.1566 31.1308 25.2487 31.2688 25.365 31.385C25.4812 31.5012 25.6192 31.5934 25.771 31.6563C25.9229 31.7192 26.0856 31.7516 26.25 31.7516C26.4143 31.7516 26.5771 31.7192 26.7289 31.6563C26.8808 31.5934 27.0187 31.5012 27.135 31.385L37.135 21.385C37.2514 21.2689 37.3437 21.131 37.4067 20.9791C37.4698 20.8272 37.5022 20.6644 37.5022 20.5C37.5022 20.3356 37.4698 20.1728 37.4067 20.0209C37.3437 19.8691 37.2514 19.7311 37.135 19.615L27.135 9.615C27.0187 9.49879 26.8808 9.40659 26.7289 9.3437C26.5771 9.2808 26.4143 9.24843 26.25 9.24843C26.0856 9.24843 25.9229 9.2808 25.771 9.3437C25.6192 9.40659 25.4812 9.49879 25.365 9.615C25.2487 9.73122 25.1566 9.8692 25.0937 10.021C25.0308 10.1729 24.9984 10.3356 24.9984 10.5C24.9984 10.6644 25.0308 10.8271 25.0937 10.979C25.1566 11.1308 25.2487 11.2688 25.365 11.385L33.2325 19.25L3.74997 19.25C3.41845 19.25 3.1005 19.3817 2.86608 19.6161C2.63166 19.8505 2.49997 20.1685 2.49997 20.5Z"/></symbol><symbol viewBox="0 0 40 41" id="btn-prev" xmlns="http://www.w3.org/2000/svg"><path fill-rule="evenodd" clip-rule="evenodd" d="M37.5 22.0384C37.5 21.7069 37.3683 21.389 37.1339 21.1546C36.8995 20.9201 36.5816 20.7884 36.25 20.7884H6.76754L14.635 12.9234C14.7513 12.8072 14.8434 12.6693 14.9063 12.5174C14.9692 12.3656 15.0016 12.2028 15.0016 12.0384C15.0016 11.8741 14.9692 11.7113 14.9063 11.5595C14.8434 11.4076 14.7513 11.2697 14.635 11.1534C14.5188 11.0372 14.3808 10.945 14.229 10.8821C14.0771 10.8192 13.9144 10.7869 13.75 10.7869C13.5857 10.7869 13.4229 10.8192 13.2711 10.8821C13.1192 10.945 12.9813 11.0372 12.865 11.1534L2.86504 21.1534C2.74863 21.2696 2.65627 21.4075 2.59326 21.5594C2.53024 21.7112 2.4978 21.874 2.4978 22.0384C2.4978 22.2029 2.53024 22.3657 2.59326 22.5175C2.65627 22.6694 2.74863 22.8073 2.86504 22.9234L12.865 32.9234C12.9813 33.0397 13.1192 33.1319 13.2711 33.1948C13.4229 33.2577 13.5857 33.29 13.75 33.29C13.9144 33.29 14.0771 33.2577 14.229 33.1948C14.3808 33.1319 14.5188 33.0397 14.635 32.9234C14.7513 32.8072 14.8434 32.6693 14.9063 32.5174C14.9692 32.3656 15.0016 32.2028 15.0016 32.0384C15.0016 31.8741 14.9692 31.7113 14.9063 31.5595C14.8434 31.4076 14.7513 31.2697 14.635 31.1534L6.76754 23.2884H36.25C36.5816 23.2884 36.8995 23.1567 37.1339 22.9223C37.3683 22.6879 37.5 22.37 37.5 22.0384Z"/></symbol><symbol viewBox="0 0 40 30" id="check-mark" xmlns="http://www.w3.org/2000/svg"><path d="M2.65833 12.7937L15.0237 25.1591L37.3418 2.84106" stroke-width="6"/></symbol><symbol viewBox="0 0 18 24" id="contact-location" xmlns="http://www.w3.org/2000/svg"><path d="M14.8435 2.06087C13.3566 0.730435 11.2696 0 9.00005 0C6.73049 0 4.64353 0.730435 3.15657 2.06087C1.33049 3.67826 0.391357 6.10435 0.391357 9.13043C0.391357 15.6783 7.93049 23.3739 8.26962 23.687C8.47831 23.8957 8.73918 24 9.00005 24C9.26092 24 9.54788 23.8957 9.73049 23.687C10.0696 23.3739 17.6087 15.6783 17.6087 9.13043C17.6087 6.10435 16.6696 3.67826 14.8435 2.06087ZM9.00005 21.4174C8.29571 20.6348 7.17397 19.3304 6.07831 17.7652C3.73049 14.4261 2.47831 11.4522 2.47831 9.13043C2.47831 2.6087 7.46092 2.08696 9.00005 2.08696C15.0522 2.08696 15.5218 7.48696 15.5218 9.13043C15.5218 13.7217 10.8522 19.3826 9.00005 21.4174ZM9.00005 4.51304C6.7044 4.51304 4.85223 6.41739 4.85223 8.73913C4.85223 11.0609 6.7044 12.9391 9.00005 12.9391C11.2957 12.9391 13.1479 11.0348 13.1479 8.71304C13.1479 6.3913 11.2957 4.51304 9.00005 4.51304ZM9.00005 11.113C7.72179 11.113 6.67831 10.0435 6.67831 8.71304C6.67831 7.38261 7.72179 6.31304 9.00005 6.31304C10.2783 6.31304 11.3218 7.38261 11.3218 8.71304C11.3218 10.0435 10.2783 11.113 9.00005 11.113Z"/></symbol><symbol viewBox="0 0 24 24" id="contact-phone" xmlns="http://www.w3.org/2000/svg"><g clip-path="url(#gclip0_406_462)"><path fill-rule="evenodd" clip-rule="evenodd" d="M22.909 17.3673V20.64C22.9103 20.9438 22.848 21.2446 22.7263 21.5229C22.6046 21.8013 22.4261 22.0512 22.2022 22.2566C21.9783 22.462 21.714 22.6184 21.4262 22.7157C21.1384 22.813 20.8334 22.8492 20.5308 22.8218C17.1739 22.4571 13.9494 21.31 11.1163 19.4727C8.48047 17.7978 6.24575 15.5631 4.57084 12.9273C2.72718 10.0813 1.57983 6.8411 1.22175 3.46911C1.19448 3.16744 1.23034 2.86339 1.32702 2.57633C1.4237 2.28928 1.5791 2.0255 1.78331 1.80179C1.98752 1.57807 2.23608 1.39934 2.51315 1.27695C2.79023 1.15456 3.08975 1.09121 3.39265 1.09093H6.66538C7.19481 1.08572 7.70806 1.27319 8.10949 1.61842C8.51091 1.96364 8.7731 2.44305 8.8472 2.96729C8.98575 4.01456 9.24102 5.04329 9.61084 6.03274C9.75761 6.42321 9.78938 6.84756 9.70237 7.25552C9.61536 7.66348 9.41323 8.03796 9.11993 8.33456L7.73447 9.72002C9.28744 12.4512 11.5488 14.7125 14.2799 16.2655L15.6654 14.88C15.962 14.5867 16.3365 14.3846 16.7444 14.2976C17.1524 14.2106 17.5767 14.2423 17.9672 14.3891C18.9567 14.7589 19.9854 15.0142 21.0327 15.1527C21.5626 15.2275 22.0465 15.4944 22.3925 15.9027C22.7385 16.3111 22.9223 16.8323 22.909 17.3673Z" stroke-width="2" stroke-linecap="round" stroke-linejoin="round"/></g><defs><clipPath id="gclip0_406_462"><rect width="24" height="24"/></clipPath></defs></symbol><symbol viewBox="0 0 24 24" id="contact-time" xmlns="http://www.w3.org/2000/svg"><g clip-path="url(#hclip0_406_466)"><path d="M12 24C5.4 24 0 18.6 0 12C0 5.4 5.4 0 12 0C18.6 0 24 5.4 24 12C24 18.6 18.6 24 12 24ZM12 2C6.5 2 2 6.5 2 12C2 17.5 6.5 22 12 22C17.5 22 22 17.5 22 12C22 6.5 17.5 2 12 2Z"/><path d="M12 13C11.4 13 11 12.6 11 12V5C11 4.4 11.4 4 12 4C12.6 4 13 4.4 13 5V12C13 12.6 12.6 13 12 13Z"/><path d="M16 17C15.7 17 15.5 16.9 15.3 16.7L11.3 12.7C10.9 12.3 10.9 11.7 11.3 11.3C11.7 10.9 12.3 10.9 12.7 11.3L16.7 15.3C17.1 15.7 17.1 16.3 16.7 16.7C16.5 16.9 16.3 17 16 17Z"/></g><defs><clipPath id="hclip0_406_466"><rect width="24" height="24"/></clipPath></defs></symbol><symbol viewBox="0 0 58 52" id="gym" xmlns="http://www.w3.org/2000/svg"><path d="M53.6399 43.1842C55.7711 41.6098 57.16 39.0882 57.16 36.2402C57.16 32.4194 54.7023 29.1042 51.0479 27.9842L46.3951 26.557L48.5008 16.5346C52.9935 14.4546 56.36 10.365 57.4352 5.41141C57.6847 4.25301 57.4096 3.06901 56.6672 2.15381C55.9376 1.24501 54.8368 0.720215 53.6591 0.720215H53.4927C51.7647 0.720215 50.3055 1.93621 49.9535 3.67701C49.2879 6.93461 46.7536 9.46901 43.5024 10.1474C42.0688 10.4418 40.9743 11.581 40.6416 12.989C40.5968 13.0722 40.5648 13.1618 40.5456 13.2578L38.2672 24.0738L18.632 18.0642L16.808 13.5202H17.8512C20.1168 13.5202 21.96 11.677 21.96 9.41141C21.96 7.48501 20.5903 5.79542 18.7087 5.38582L7.87355 3.06901C6.30555 2.72981 4.69275 3.11381 3.44475 4.12501C2.19675 5.12981 1.47995 6.63381 1.47995 8.23381C1.47995 11.1522 3.84795 13.5202 6.76635 13.5202H7.65595L9.46075 18.0386C8.16795 18.493 6.93275 19.1458 5.79355 19.9906C2.23515 22.6146 0.199951 26.6594 0.199951 31.0818C0.199951 35.8242 2.60635 40.0098 6.25435 42.4994C2.79835 43.2418 0.199951 46.3202 0.199951 50.0002C0.199951 50.7042 0.775951 51.2802 1.47995 51.2802H56.52C57.2239 51.2802 57.7999 50.7042 57.7999 50.0002C57.7999 47.037 56.1104 44.4642 53.6399 43.1842ZM44.0272 12.6498C48.2768 11.7666 51.5856 8.44501 52.4624 4.18901C52.5712 3.65781 52.9935 3.28021 53.4927 3.28021H53.6591C54.2095 3.28021 54.536 3.58101 54.6768 3.76021C54.9264 4.06741 55.0223 4.47061 54.9327 4.86741C53.8191 9.99381 49.7936 14.0194 44.6672 15.133C44.2704 15.2226 43.8607 15.1266 43.5536 14.877C43.3743 14.7362 43.0799 14.4162 43.0799 13.885C43.0799 13.2834 43.4768 12.765 44.0272 12.6498ZM42.3439 17.1362C42.9583 17.5202 43.6559 17.725 44.3727 17.725C44.6479 17.725 44.9296 17.6994 45.2112 17.6354C45.3647 17.6034 45.5247 17.5522 45.6783 17.5138L43.9375 25.8082L40.7248 24.829L42.3439 17.1362ZM6.76635 10.9602C5.26235 10.9602 4.03995 9.73781 4.03995 8.23381C4.03995 7.40821 4.41115 6.63381 5.05115 6.11542C5.54395 5.71862 6.14555 5.50741 6.75995 5.50741C6.95195 5.50741 7.14395 5.52661 7.33595 5.57141L18.1712 7.89461C18.8816 8.04181 19.4 8.68181 19.4 9.41141C19.4 10.2626 18.7024 10.9602 17.8512 10.9602H6.76635ZM15.592 17.373C14.376 17.2258 13.16 17.245 11.9696 17.4242L10.408 13.5202H14.056L15.592 17.373ZM2.75995 31.0818C2.75995 27.4786 4.41755 24.189 7.31675 22.045C9.28795 20.5858 11.5984 19.8306 13.9664 19.8306C15.0736 19.8306 16.1872 19.997 17.288 20.3362L50.2991 30.429C52.8719 31.2162 54.5999 33.5522 54.5999 36.2402C54.5999 39.5938 51.8736 42.3202 48.52 42.3202H13.9984C7.80315 42.3202 2.75995 37.277 2.75995 31.0818ZM2.91995 48.7202C3.48955 46.5122 5.49915 44.8802 7.87995 44.8802H50.1199C52.5008 44.8802 54.5103 46.5122 55.0799 48.7202H2.91995ZM19.2719 37.2642L21.1408 38.8258C21.16 38.8386 21.1792 38.8514 21.1984 38.8642C21.224 38.8834 21.256 38.9026 21.288 38.9218C21.3264 38.9474 21.3648 38.9666 21.4032 38.9858C21.4352 39.005 21.4672 39.0178 21.4928 39.0306C21.544 39.0498 21.5888 39.0626 21.6399 39.0754C21.6656 39.0818 21.6912 39.0882 21.7232 39.0946C21.8 39.1138 21.8768 39.1202 21.96 39.1202H25.16C25.864 39.1202 26.44 38.5442 26.44 37.8402C26.44 37.1362 25.864 36.5602 25.16 36.5602H22.4208L20.9104 35.2994C21.576 34.1666 21.96 32.8482 21.96 31.4402C21.96 27.2034 18.5168 23.7602 14.28 23.7602C10.0432 23.7602 6.59995 27.2034 6.59995 31.4402C6.59995 35.677 10.0432 39.1202 14.28 39.1202C16.1872 39.1202 17.9279 38.4162 19.2719 37.2642ZM9.15995 31.4402C9.15995 28.6178 11.4576 26.3202 14.28 26.3202C17.1024 26.3202 19.4 28.6178 19.4 31.4402C19.4 32.221 19.2208 32.9634 18.9008 33.629L15.0992 30.4546C14.5552 30.0066 13.7488 30.077 13.2944 30.621C12.8464 31.165 12.9168 31.9714 13.4608 32.4258L17.2624 35.5938C16.424 36.2018 15.3936 36.5602 14.28 36.5602C11.4576 36.5602 9.15995 34.2626 9.15995 31.4402ZM30.28 37.8402C30.28 37.1362 30.856 36.5602 31.5599 36.5602H32.84C33.5439 36.5602 34.1199 37.1362 34.1199 37.8402C34.1199 38.5442 33.5439 39.1202 32.84 39.1202H31.5599C30.856 39.1202 30.28 38.5442 30.28 37.8402ZM37.9599 37.8402C37.9599 37.1362 38.5359 36.5602 39.24 36.5602H40.52C41.2239 36.5602 41.7999 37.1362 41.7999 37.8402C41.7999 38.5442 41.2239 39.1202 40.52 39.1202H39.24C38.5359 39.1202 37.9599 38.5442 37.9599 37.8402ZM45.6399 37.8402C45.6399 37.1362 46.216 36.5602 46.9199 36.5602H48.2C48.9039 36.5602 49.4799 37.1362 49.4799 37.8402C49.4799 38.5442 48.9039 39.1202 48.2 39.1202H46.9199C46.216 39.1202 45.6399 38.5442 45.6399 37.8402Z"/></symbol><symbol viewBox="0 0 23 22" id="instagramm" xmlns="http://www.w3.org/2000/svg"><path d="M14.6686 10.9999V10.999C14.6686 10.1507 14.3744 9.32867 13.8363 8.67295C13.2982 8.01723 12.5493 7.56839 11.7173 7.40289C10.8854 7.23739 10.0217 7.36548 9.27361 7.76533C8.52549 8.16517 7.93914 8.81205 7.61448 9.59573C7.28981 10.3794 7.24691 11.2514 7.49309 12.0632C7.73926 12.875 8.25928 13.5763 8.96455 14.0476C9.66981 14.519 10.5167 14.7312 11.3609 14.6482C12.2051 14.5651 12.9944 14.1919 13.5943 13.5922C13.9347 13.2632 14.2052 12.8689 14.3898 12.4329C14.5744 11.997 14.6692 11.5283 14.6686 11.0549L14.6677 10.9971V10.9999H14.6686ZM16.6486 10.9999C16.6442 12.3001 16.1894 13.5587 15.3616 14.5614C14.5337 15.564 13.384 16.2489 12.1081 16.4993C10.8322 16.7497 9.50889 16.5503 8.36346 15.935C7.21803 15.3196 6.32121 14.3264 5.82564 13.1242C5.33006 11.9221 5.26636 10.5854 5.64536 9.34163C6.02436 8.09783 6.82265 7.02379 7.90437 6.3023C8.98609 5.5808 10.2844 5.25643 11.5783 5.38439C12.8723 5.51235 14.0819 6.08474 15.0014 7.00413C15.5235 7.51079 15.9385 8.11723 16.2216 8.78743C16.5048 9.45763 16.6503 10.1779 16.6495 10.9055L16.6486 11.0054V11.0008V10.9999ZM18.195 5.12771V5.12955C18.1951 5.43494 18.0893 5.73092 17.8957 5.96705C17.702 6.20319 17.4325 6.36486 17.1329 6.42453C16.8334 6.4842 16.5225 6.43817 16.2531 6.29429C15.9838 6.15041 15.7726 5.91757 15.6557 5.63546C15.5387 5.35334 15.5232 5.0394 15.6118 4.74713C15.7004 4.45487 15.8875 4.20235 16.1414 4.03262C16.3953 3.86289 16.7002 3.78644 17.0041 3.8163C17.308 3.84616 17.5922 3.98048 17.8082 4.19638C18.0429 4.42646 18.1886 4.7473 18.1886 5.10205V5.12863V5.12771H18.195ZM11.0084 1.97438L9.91296 1.96705C9.24929 1.96216 8.74543 1.96216 8.40137 1.96705C8.05732 1.97194 7.59654 1.9863 7.01904 2.01013C6.48279 2.02846 5.97404 2.08163 5.47629 2.16596L5.54321 2.1568C5.15362 2.22096 4.80804 2.31263 4.47712 2.43455L4.51654 2.42171C4.04905 2.60964 3.62392 2.88928 3.26622 3.24414C2.90853 3.599 2.62552 4.02189 2.43387 4.48788L2.42471 4.51263C2.30705 4.83467 2.21989 5.16704 2.16437 5.50538L2.15979 5.5393C2.07826 6.02096 2.02956 6.50761 2.01404 6.99588L2.01312 7.01513C1.98929 7.59324 1.97493 8.05402 1.97004 8.39746C1.96515 8.74091 1.96515 9.24477 1.97004 9.90905C1.97493 10.5733 1.97737 10.9385 1.97737 11.0045C1.97737 11.0705 1.97493 11.4356 1.97004 12.0999C1.96515 12.7642 1.96515 13.268 1.97004 13.6115C1.97493 13.9549 1.98929 14.4157 2.01312 14.9938C2.03146 15.53 2.08462 16.0388 2.16896 16.5365L2.15979 16.4696C2.22396 16.8592 2.31562 17.2048 2.43754 17.5357L2.42471 17.4963C2.61264 17.9638 2.89228 18.3889 3.24714 18.7466C3.602 19.1043 4.02489 19.3873 4.49087 19.579L4.51562 19.5881C4.80712 19.6972 5.15271 19.7889 5.50837 19.8485L5.54229 19.853C5.97221 19.9282 6.48096 19.9814 6.99796 19.9988L7.01721 19.9997C7.59532 20.0235 8.0561 20.0379 8.39954 20.0428C8.74298 20.0477 9.24685 20.0477 9.91112 20.0428L11.0001 20.0208L12.0955 20.0281C12.7592 20.033 13.2631 20.033 13.6071 20.0281C13.9512 20.0232 14.412 20.0089 14.9895 19.985C15.5257 19.9667 16.0345 19.9135 16.5322 19.8292L16.4653 19.8384C16.8549 19.7742 17.2005 19.6825 17.5314 19.5606L17.492 19.5735C17.9595 19.3855 18.3846 19.1059 18.7423 18.751C19.1 18.3962 19.383 17.9733 19.5746 17.5073L19.5838 17.4825C19.6929 17.191 19.7845 16.8455 19.8441 16.4898L19.8487 16.4559C19.9239 16.026 19.977 15.5172 19.9945 15.0002L19.9954 14.981C20.0192 14.4029 20.0336 13.9421 20.0385 13.5986C20.0433 13.2552 20.0433 12.7513 20.0385 12.087C20.0336 11.4228 20.0311 11.0576 20.0311 10.9916C20.0311 10.9256 20.0336 10.5605 20.0385 9.89621C20.0433 9.23193 20.0433 8.72807 20.0385 8.38463C20.0336 8.04119 20.0192 7.58041 19.9954 7.0023C19.977 6.46605 19.9239 5.9573 19.8395 5.45955L19.8487 5.52646C19.7906 5.16301 19.6975 4.806 19.571 4.46038L19.5838 4.4998C19.3959 4.0323 19.1162 3.60717 18.7614 3.24948C18.4065 2.89179 17.9836 2.60877 17.5176 2.41713L17.4929 2.40796C17.1708 2.2903 16.8385 2.20314 16.5001 2.14763L16.4662 2.14305C15.9848 2.06156 15.4985 2.01286 15.0105 1.9973L14.9913 1.99638C14.4132 1.97255 13.9524 1.95819 13.609 1.9533C13.2655 1.94841 12.7617 1.94841 12.0974 1.9533L11.0084 1.97438ZM22.002 10.9999C22.002 13.1864 21.9775 14.6999 21.9286 15.5401C21.972 16.3917 21.8359 17.2429 21.5292 18.0385C21.2226 18.8341 20.7522 19.5564 20.1485 20.1586C19.5448 20.7608 18.8214 21.2294 18.025 21.5341C17.2287 21.8389 16.3772 21.9729 15.5257 21.9275L15.5404 21.9284C14.7001 21.9773 13.1867 22.0017 11.0001 22.0017C8.81357 22.0017 7.30015 21.9773 6.45987 21.9284C5.60831 21.9717 4.75714 21.8356 3.96152 21.529C3.16591 21.2223 2.4436 20.7519 1.84141 20.1483C1.23922 19.5446 0.770575 18.8211 0.465856 18.0248C0.161136 17.2284 0.0271366 16.3769 0.072541 15.5255L0.0716243 15.5401C0.0227355 14.6999 -0.00170898 13.1864 -0.00170898 10.9999C-0.00170898 8.81332 0.0227355 7.29991 0.0716243 6.45963C0.0282948 5.60806 0.164369 4.75689 0.471028 3.96128C0.777687 3.16566 1.24809 2.44336 1.85175 1.84116C2.45541 1.23897 3.17886 0.770331 3.97522 0.465611C4.77158 0.160892 5.62308 0.0268924 6.47454 0.0722969L6.45987 0.0713802C7.30015 0.0224913 8.81357 -0.00195312 11.0001 -0.00195312C13.1867 -0.00195312 14.7001 0.0224913 15.5404 0.0713802C16.3919 0.0280507 17.2431 0.164125 18.0387 0.470784C18.8343 0.777443 19.5566 1.24784 20.1588 1.85151C20.761 2.45517 21.2297 3.17862 21.5344 3.97498C21.8391 4.77134 21.9731 5.62284 21.9277 6.4743L21.9286 6.45963C21.9775 7.2993 22.002 8.81271 22.002 10.9999Z"/></symbol><symbol viewBox="0 0 64 64" id="location" xmlns="http://www.w3.org/2000/svg"><path d="M37.3334 20.6668C37.3334 17.7202 34.9467 15.3335 32.0001 15.3335C29.0534 15.3335 26.6667 17.7202 26.6667 20.6668C26.6667 23.6135 29.0534 26.0002 32.0001 26.0002C34.9467 26.0002 37.3334 23.6135 37.3334 20.6668ZM29.3334 20.6668C29.3334 19.2002 30.5334 18.0002 32.0001 18.0002C33.4667 18.0002 34.6667 19.2002 34.6667 20.6668C34.6667 22.1335 33.4667 23.3335 32.0001 23.3335C30.5334 23.3335 29.3334 22.1335 29.3334 20.6668Z"/><path d="M5.33327 54H58.6666C59.1333 54 59.5599 53.76 59.7999 53.36C60.0399 52.96 60.0666 52.48 59.8533 52.0667L49.1866 30.7333C48.9599 30.28 48.5066 30 47.9999 30H39.6933C41.6666 25.64 42.6666 22.4933 42.6666 20.6667C42.6666 14.7867 37.8799 10 31.9999 10C26.1199 10 21.3333 14.7867 21.3333 20.6667C21.3333 22.4933 22.3333 25.64 24.3066 30H15.9999C15.4933 30 15.0399 30.28 14.8133 30.7333L4.14661 52.0667C3.93327 52.48 3.95994 52.9733 4.19994 53.36C4.43994 53.76 4.86661 54 5.33327 54ZM23.9999 20.6667C23.9999 16.2533 27.5866 12.6667 31.9999 12.6667C36.4133 12.6667 39.9999 16.2533 39.9999 20.6667C39.9999 23.72 35.9733 32.08 31.9999 39.28C28.0266 32.08 23.9999 23.72 23.9999 20.6667ZM16.8266 32.6667H25.5599C28.0533 37.8133 30.7333 42.4667 30.8533 42.6667C31.3333 43.4933 32.6933 43.4933 33.1599 42.6667C33.2799 42.4667 35.9599 37.8133 38.4533 32.6667H47.1866L56.5199 51.3333H7.49327L16.8266 32.6667Z"/></symbol><symbol viewBox="0 0 64 64" id="money" xmlns="http://www.w3.org/2000/svg"><path fill-rule="evenodd" clip-rule="evenodd" d="M62.6666 53.3333C62.6666 57.016 59.6826 60 55.9999 60H7.99992C4.31725 60 1.33325 57.016 1.33325 53.3333V14.6666C1.33325 11.7213 3.72125 9.33329 6.66658 9.33329H33.5612L44.3599 5.42129C45.0439 5.17196 45.8012 5.5253 46.0506 6.20663L47.1879 9.33329H51.9999C54.9452 9.33329 57.3332 11.7213 57.3332 14.6666V17.3333C60.2786 17.3333 62.6666 19.7213 62.6666 22.6666V53.3333ZM6.66658 12C5.19459 12 3.99992 13.1946 3.99992 14.6666C3.99992 16.1386 5.19459 17.3333 6.66658 17.3333H11.2599H11.5119C11.5293 17.3266 11.5399 17.312 11.5573 17.3053L26.1999 12H6.66658ZM45.4372 12.2413L44.0212 8.34263H44.0199L41.2853 9.33329H41.2892L33.9372 12H33.9239L19.2053 17.3333H47.2879L45.4372 12.2413ZM54.6666 14.6666C54.6666 13.1946 53.4719 12 51.9999 12H48.1559L50.0946 17.3333H54.6666V14.6666ZM57.3332 20H6.66658C5.69059 20 4.78659 19.7186 3.99992 19.26V53.3333C3.99992 55.5426 5.79192 57.3333 7.99992 57.3333H55.9999C58.2092 57.3333 59.9999 55.5426 59.9999 53.3333V44H54.6666C51.7212 44 49.3332 41.612 49.3332 38.6666C49.3332 35.7213 51.7212 33.3333 54.6666 33.3333H59.9999V22.6666C59.9999 21.1946 58.8052 20 57.3332 20ZM59.9999 41.3333V36H54.6666C53.1946 36 51.9999 37.1946 51.9999 38.6666C51.9999 40.1386 53.1946 41.3333 54.6666 41.3333H59.9999ZM54.6666 37.3333H57.3332V40H54.6666V37.3333Z"/></symbol><symbol viewBox="0 0 34 34" id="time" xmlns="http://www.w3.org/2000/svg"><path d="M22.8438 16.4688H18.4959C18.4167 16.2466 18.289 16.0448 18.1222 15.8779C17.9553 15.7111 17.7535 15.5834 17.5313 15.5042V9.03134C17.5313 8.89045 17.4753 8.75532 17.3757 8.65569C17.276 8.55606 17.1409 8.50009 17 8.50009C16.8591 8.50009 16.724 8.55606 16.6244 8.65569C16.5247 8.75532 16.4688 8.89045 16.4688 9.03134V15.5042C16.2152 15.5934 15.9883 15.7454 15.8095 15.946C15.6306 16.1466 15.5055 16.3893 15.4459 16.6514C15.3862 16.9135 15.3941 17.1864 15.4686 17.4447C15.5431 17.703 15.6818 17.9381 15.8719 18.1282C16.062 18.3183 16.2971 18.457 16.5554 18.5315C16.8137 18.606 17.0866 18.6139 17.3487 18.5542C17.6108 18.4946 17.8535 18.3695 18.0541 18.1906C18.2547 18.0118 18.4067 17.7849 18.4959 17.5313H22.8438C22.9846 17.5313 23.1198 17.4754 23.2194 17.3757C23.319 17.2761 23.375 17.141 23.375 17.0001C23.375 16.8592 23.319 16.7241 23.2194 16.6244C23.1198 16.5248 22.9846 16.4688 22.8438 16.4688ZM17 17.5313C16.8949 17.5313 16.7922 17.5002 16.7049 17.4418C16.6175 17.3834 16.5494 17.3005 16.5092 17.2034C16.469 17.1063 16.4585 16.9995 16.479 16.8965C16.4995 16.7934 16.5501 16.6987 16.6244 16.6244C16.6986 16.5501 16.7933 16.4995 16.8964 16.4791C16.9994 16.4586 17.1062 16.4691 17.2033 16.5093C17.3004 16.5495 17.3833 16.6176 17.4417 16.7049C17.5001 16.7923 17.5313 16.895 17.5313 17.0001C17.5311 17.1409 17.475 17.276 17.3755 17.3755C17.2759 17.4751 17.1408 17.5312 17 17.5313ZM34 17.0001C34.0004 14.3203 33.3673 11.6784 32.1523 9.28982C30.9372 6.90129 29.1748 4.83383 27.0086 3.25612C24.8425 1.6784 22.3341 0.635127 19.688 0.211409C17.0419 -0.212308 14.3331 -0.00446613 11.7826 0.817979C9.23214 1.64042 6.91222 3.05417 5.01214 4.94389C3.11205 6.8336 1.68562 9.14574 0.849226 11.6917C0.0128302 14.2376 -0.209838 16.9452 0.199387 19.5936C0.608612 22.242 1.63814 24.7561 3.20397 26.9308C3.19562 26.9848 3.19012 27.0392 3.1875 27.0938V28.1563C3.18796 28.5789 3.35602 28.984 3.65481 29.2828C3.9536 29.5816 4.35871 29.7496 4.78125 29.7501H5.3125V30.9039C5.31302 31.4431 5.52745 31.9601 5.90873 32.3414C6.29001 32.7226 6.80698 32.9371 7.34619 32.9376H7.52881C7.91127 32.9366 8.28554 32.8268 8.60792 32.621C8.73742 33.0206 8.98983 33.3691 9.32913 33.6168C9.66844 33.8644 10.0773 33.9986 10.4974 34.0001H10.7526C11.2822 33.9994 11.7898 33.7888 12.1642 33.4143C12.5387 33.0399 12.7493 32.5323 12.75 32.0027V29.7501H21.25V32.0027C21.2507 32.5322 21.4613 33.0399 21.8358 33.4143C22.2102 33.7888 22.7178 33.9994 23.2474 34.0001H23.5026C23.9227 33.9986 24.3316 33.8644 24.6709 33.6168C25.0102 33.3691 25.2626 33.0206 25.3921 32.621C25.7145 32.8268 26.0887 32.9366 26.4712 32.9376H26.6538C27.193 32.9371 27.71 32.7226 28.0913 32.3414C28.4726 31.9601 28.687 31.4431 28.6875 30.9039V29.7501H29.2188C29.6413 29.7496 30.0464 29.5816 30.3452 29.2828C30.644 28.984 30.812 28.5789 30.8125 28.1563V27.0938C30.8099 27.0392 30.8044 26.9848 30.796 26.9308C32.886 24.042 34.0076 20.5656 34 17.0001ZM5.3125 28.6876H4.78125C4.64041 28.6874 4.50539 28.6314 4.4058 28.5318C4.30621 28.4322 4.25018 28.2972 4.25 28.1563V27.0938C4.25018 26.953 4.30621 26.818 4.4058 26.7184C4.50539 26.6188 4.64041 26.5628 4.78125 26.5626H5.3125V28.6876ZM8.5 30.9039C8.49967 31.1614 8.39724 31.4082 8.21518 31.5903C8.03312 31.7723 7.78629 31.8748 7.52881 31.8751H7.34619C7.08872 31.8748 6.84188 31.7723 6.65982 31.5903C6.47776 31.4082 6.37533 31.1614 6.375 30.9039V25.4088C6.37533 25.1513 6.47776 24.9045 6.65982 24.7224C6.84188 24.5404 7.08872 24.4379 7.34619 24.4376H7.52881C7.78629 24.4379 8.03312 24.5404 8.21518 24.7224C8.39724 24.9045 8.49967 25.1513 8.5 25.4088V30.9039ZM11.6875 32.0027C11.6873 32.2506 11.5887 32.4883 11.4134 32.6635C11.2382 32.8388 11.0005 32.9374 10.7526 32.9376H10.4974C10.2495 32.9374 10.0118 32.8388 9.83656 32.6635C9.66128 32.4883 9.56272 32.2506 9.5625 32.0027V23.2475C9.56272 22.9996 9.66128 22.7619 9.83656 22.5866C10.0118 22.4114 10.2495 22.3128 10.4974 22.3126H10.7526C11.0005 22.3128 11.2382 22.4114 11.4134 22.5866C11.5887 22.7619 11.6873 22.9996 11.6875 23.2475V32.0027ZM21.25 28.6876H12.75V26.5626H21.25V28.6876ZM24.4375 25.4088V32.0027C24.4373 32.2506 24.3387 32.4883 24.1635 32.6635C23.9882 32.8388 23.7505 32.9374 23.5026 32.9376H23.2474C22.9995 32.9374 22.7618 32.8388 22.5866 32.6635C22.4113 32.4883 22.3127 32.2506 22.3125 32.0027V23.2475C22.3127 22.9996 22.4113 22.7619 22.5866 22.5866C22.7618 22.4114 22.9995 22.3128 23.2474 22.3126H23.5026C23.7505 22.3128 23.9882 22.4114 24.1634 22.5866C24.3387 22.7619 24.4373 22.9996 24.4375 23.2475V25.4088ZM27.625 30.9039C27.6247 31.1614 27.5222 31.4082 27.3402 31.5903C27.1581 31.7723 26.9113 31.8748 26.6538 31.8751H26.4712C26.2137 31.8748 25.9669 31.7723 25.7848 31.5903C25.6028 31.4082 25.5003 31.1614 25.5 30.9039V25.4088C25.5003 25.1513 25.6028 24.9045 25.7848 24.7224C25.9669 24.5404 26.2137 24.4379 26.4712 24.4376H26.6538C26.9113 24.4379 27.1581 24.5404 27.3402 24.7224C27.5222 24.9045 27.6247 25.1513 27.625 25.4088V30.9039ZM27.8149 23.7432C27.475 23.5039 27.0695 23.3753 26.6538 23.3751H26.4712C26.1308 23.3774 25.7966 23.4662 25.5 23.6331V23.2475C25.4993 22.7179 25.2887 22.2103 24.9142 21.8358C24.5398 21.4614 24.0322 21.2508 23.5026 21.2501H23.2474C22.7179 21.2508 22.2102 21.4614 21.8358 21.8358C21.4613 22.2103 21.2507 22.7179 21.25 23.2475V25.5001H12.75V23.2475C12.7493 22.7179 12.5387 22.2103 12.1642 21.8358C11.7898 21.4614 11.2822 21.2508 10.7526 21.2501H10.4974C9.96784 21.2508 9.46019 21.4614 9.08576 21.8358C8.71132 22.2103 8.50067 22.7179 8.5 23.2475V23.6331C8.20337 23.4662 7.86917 23.3774 7.52881 23.3751H7.34619C6.9305 23.3753 6.52502 23.5039 6.18512 23.7432C5.01842 21.8739 4.35842 19.7331 4.27004 17.5313H5.84375C5.98465 17.5313 6.11977 17.4754 6.2194 17.3757C6.31903 17.2761 6.375 17.141 6.375 17.0001C6.375 16.8592 6.31903 16.7241 6.2194 16.6244C6.11977 16.5248 5.98465 16.4688 5.84375 16.4688H4.27587C4.39214 13.4585 5.58029 10.5888 7.62602 8.37733L8.73554 9.48685C8.83549 9.58481 8.97007 9.63936 9.11002 9.63865C9.24997 9.63794 9.38399 9.58204 9.48295 9.48307C9.58191 9.38411 9.63782 9.25009 9.63853 9.11014C9.63923 8.97019 9.58468 8.83562 9.48672 8.73566L8.37718 7.62605C10.5886 5.58015 13.4584 4.39199 16.4688 4.27597V5.84384C16.4688 5.98474 16.5247 6.11987 16.6244 6.21949C16.724 6.31912 16.8591 6.37509 17 6.37509C17.1409 6.37509 17.276 6.31912 17.3757 6.21949C17.4753 6.11987 17.5313 5.98474 17.5313 5.84384V4.27597C20.5416 4.39198 23.4114 5.58013 25.6228 7.62603L24.5132 8.73563C24.4631 8.78477 24.4232 8.84337 24.3958 8.90802C24.3685 8.97268 24.3542 9.04213 24.3539 9.11233C24.3535 9.18254 24.3671 9.25212 24.3938 9.31706C24.4205 9.38199 24.4598 9.44098 24.5094 9.49063C24.5591 9.54028 24.6181 9.57959 24.683 9.60629C24.7479 9.63299 24.8175 9.64656 24.8877 9.64621C24.9579 9.64585 25.0274 9.63158 25.092 9.60422C25.1567 9.57687 25.2153 9.53696 25.2644 9.48682L26.374 8.3773C28.4197 10.5888 29.6079 13.4585 29.7241 16.4688H28.1563C28.0154 16.4688 27.8802 16.5248 27.7806 16.6244C27.681 16.7241 27.625 16.8592 27.625 17.0001C27.625 17.141 27.681 17.2761 27.7806 17.3757C27.8802 17.4754 28.0154 17.5313 28.1563 17.5313H29.73C29.6416 19.7331 28.9816 21.8739 27.8149 23.7432ZM29.75 28.1563C29.7498 28.2972 29.6938 28.4322 29.5942 28.5318C29.4946 28.6314 29.3596 28.6874 29.2188 28.6876H28.6875V26.5626H29.2188C29.3596 26.5628 29.4946 26.6188 29.5942 26.7184C29.6938 26.818 29.7498 26.953 29.75 27.0938V28.1563ZM30.2322 25.8741C29.9489 25.6341 29.59 25.5017 29.2188 25.5001H28.6875V25.4088C28.6875 25.1329 28.631 24.86 28.5215 24.6068C29.898 22.5252 30.6848 20.1094 30.7982 17.6163C30.9117 15.1233 30.3476 12.6461 29.1658 10.4479C27.9841 8.24982 26.2289 6.41294 24.0868 5.1325C21.9447 3.85206 19.4956 3.17591 17 3.17591C14.5044 3.17591 12.0553 3.85206 9.91322 5.1325C7.7711 6.41294 6.0159 8.24982 4.83417 10.4479C3.65244 12.6461 3.08833 15.1233 3.20178 17.6163C3.31524 20.1094 4.10202 22.5252 5.47852 24.6068C5.36902 24.86 5.31252 25.1329 5.3125 25.4088V25.5001H4.78125C4.40997 25.5017 4.05113 25.6341 3.76784 25.8741C2.38111 23.8065 1.49813 21.4427 1.18967 18.9723C0.881207 16.5019 1.15586 13.9936 1.9916 11.6485C2.82735 9.3034 4.20093 7.18673 6.00223 5.4682C7.80352 3.74967 9.98242 2.47709 12.3642 1.7525C14.746 1.02791 17.2645 0.87146 19.7176 1.2957C22.1708 1.71993 24.4904 2.71305 26.4906 4.19543C28.4907 5.6778 30.1157 7.6082 31.2353 9.83184C32.3549 12.0555 32.9378 14.5105 32.9375 17.0001C32.9423 20.1619 32.0001 23.2527 30.2322 25.8741Z"/></symbol><symbol viewBox="0 0 31 30" id="vk" xmlns="http://www.w3.org/2000/svg"><g clip-path="url(#nclip0_406_291)"><path d="M29.3219 7.22988C29.0081 8.23263 28.549 9.18398 27.9594 10.0536L27.9831 10.0161C27.4231 10.9495 26.7544 12.0278 25.9769 13.2511C25.3102 14.217 24.9573 14.717 24.9181 14.7511C24.7399 14.9742 24.6247 15.241 24.5844 15.5236L24.5831 15.5324C24.6149 15.7871 24.7332 16.0231 24.9181 16.2011L25.4181 16.7586C28.0931 19.5078 29.5977 21.4028 29.9319 22.4436C29.9952 22.6146 30.0156 22.7985 29.9912 22.9792C29.9668 23.1599 29.8983 23.3319 29.7919 23.4799L29.7944 23.4761C29.6685 23.6059 29.5151 23.7058 29.3455 23.7683C29.1759 23.8309 28.9943 23.8545 28.8144 23.8374H28.8194H25.5244C25.1031 23.8374 24.7156 23.6899 24.4119 23.4449L24.4156 23.4474C23.9819 23.0918 23.5838 22.6949 23.2269 22.2624L23.2156 22.2474C22.6398 21.5965 22.1289 21.0486 21.6831 20.6036C20.1981 19.192 19.1023 18.4861 18.3956 18.4861C18.1675 18.4657 17.9395 18.5254 17.7506 18.6549L17.7544 18.6524C17.6732 18.7541 17.6137 18.8713 17.5793 18.9968C17.5449 19.1223 17.5364 19.2535 17.5544 19.3824V19.3774C17.5058 19.9606 17.4899 20.5461 17.5069 21.1311V21.1099V22.5586C17.5424 22.7317 17.5302 22.9111 17.4716 23.0778C17.4131 23.2444 17.3103 23.3921 17.1744 23.5049L17.1731 23.5061C16.5401 23.7921 15.8432 23.9072 15.1519 23.8399L15.1681 23.8411C13.2759 23.8087 11.4283 23.2607 9.82437 22.2561L9.86812 22.2811C8.0186 21.1661 6.43332 19.6627 5.22187 17.8749L5.18812 17.8224C4.01216 16.2542 2.97848 14.5843 2.09937 12.8324L2.01187 12.6399C1.42607 11.5054 0.911324 10.3357 0.470615 9.13738L0.395615 8.90613C0.191284 8.28405 0.0612151 7.64 0.00811523 6.98738L0.00561523 6.95613C0.00561523 6.32447 0.377282 6.00863 1.12062 6.00863H4.40812C4.74047 5.9826 5.0704 6.08305 5.33187 6.28988L5.32937 6.28738C5.57937 6.56113 5.76437 6.89738 5.85562 7.27238L5.85937 7.28738C6.40248 8.84278 7.06573 10.3536 7.84312 11.8061L7.75937 11.6349C8.32123 12.7762 9.00119 13.8554 9.78812 14.8549L9.75937 14.8161C10.426 15.6345 10.946 16.0436 11.3194 16.0436L11.3594 16.0449C11.4473 16.045 11.5336 16.022 11.6098 15.9781C11.6859 15.9342 11.7492 15.871 11.7931 15.7949L11.7944 15.7924C11.914 15.4791 11.9615 15.1428 11.9331 14.8086V14.8161V9.96738C11.9097 9.41763 11.7736 8.87855 11.5331 8.38363L11.5431 8.40738C11.3973 8.09284 11.2079 7.80039 10.9806 7.53863L10.9844 7.54363C10.7748 7.33437 10.6384 7.06296 10.5956 6.76988L10.5944 6.76238C10.5944 6.54988 10.6919 6.35863 10.8444 6.23363L10.8456 6.23238C11.0026 6.08866 11.2078 6.00923 11.4206 6.00988H16.6131C16.7435 5.99467 16.8755 6.01206 16.9975 6.0605C17.1195 6.10893 17.2275 6.18689 17.3119 6.28738L17.3131 6.28863C17.471 6.58035 17.5401 6.91188 17.5119 7.24238V7.23613V13.7024C17.492 13.9574 17.5513 14.2124 17.6819 14.4324L17.6794 14.4274C17.7251 14.4958 17.7871 14.5519 17.8597 14.5907C17.9323 14.6295 18.0133 14.6498 18.0956 14.6499H18.0969C18.3077 14.6362 18.511 14.5663 18.6856 14.4474L18.6819 14.4499C19.0219 14.2161 19.3144 13.9499 19.5681 13.6486L19.5731 13.6424C20.3454 12.7686 21.0377 11.8273 21.6419 10.8299L21.6906 10.7424C22.1206 10.0299 22.5856 9.15238 23.0069 8.25113L23.0844 8.06738L23.6419 6.95238C23.74 6.66409 23.9294 6.41558 24.1813 6.24442C24.4332 6.07325 24.7339 5.98874 25.0381 6.00363H25.0344H28.3231C29.2114 6.00363 29.5448 6.41238 29.3231 7.22988H29.3219Z"/></g><defs><clipPath id="nclip0_406_291"><rect width="30" height="30" transform="translate(0.00195312)"/></clipPath></defs></symbol></svg>